<svg width="80" height="80" viewBox="0 0 80 80" fill="none" xmlns="http://www.w3.org/2000/svg">
<g clip-path="url(#clip0)">
<path d="M26.6667 10H56.6667C59.3188 10 61.8624 11.0536 63.7377 12.9289C65.6131 14.8043 66.6667 17.3478 66.6667 20V63.3333C66.6667 65.9855 65.6131 68.529 63.7377 70.4044C61.8624 72.2798 59.3188 73.3333 56.6667 73.3333H26.6667C24.0145 73.3333 21.471 72.2798 19.5956 70.4044C17.7202 68.529 16.6667 65.9855 16.6667 63.3333V20C16.6667 17.3478 17.7202 14.8043 19.5956 12.9289C21.471 11.0536 24.0145 10 26.6667 10V10ZM26.6667 13.3333C24.8986 13.3333 23.2029 14.0357 21.9526 15.286C20.7024 16.5362 20 18.2319 20 20V63.3333C20 65.1014 20.7024 66.7971 21.9526 68.0474C23.2029 69.2976 24.8986 70 26.6667 70H56.6667C58.4348 70 60.1305 69.2976 61.3807 68.0474C62.631 66.7971 63.3333 65.1014 63.3333 63.3333V20C63.3333 18.2319 62.631 16.5362 61.3807 15.286C60.1305 14.0357 58.4348 13.3333 56.6667 13.3333H46.6667V35.6667L36.6667 28.6667L26.6667 35.6667V13.3333ZM43.3333 13.3333H30V29.2667L36.6667 24.5967L43.3333 29.2633V13.3333ZM26.6667 80C22.2464 80 18.0072 78.2441 14.8816 75.1184C11.7559 71.9928 10 67.7536 10 63.3333V23.3333H13.3333V63.3333C13.3333 66.8696 14.7381 70.2609 17.2386 72.7614C19.7391 75.2619 23.1304 76.6667 26.6667 76.6667H53.3333V80H26.6667Z" fill="#3D5AFE"/>
</g>
<defs>
<clipPath id="clip0">
<rect width="80" height="80" fill="white"/>
</clipPath>
</defs>
</svg>
