<svg width="80" height="80" viewBox="0 0 80 80" fill="none" xmlns="http://www.w3.org/2000/svg">
<path d="M60 35V25L54 23C53.5 21.5 53 19.5 52 18L55 12L47.5 5.5L42 8C40.5 7 39 6.5 37 6L35 0H25L23 6C21.5 6.5 19.5 7 18 8L12.5 5.5L5.5 12.5L8.5 18.5C7.5 20 7 21.5 6.5 23.5L0 25V35L6 37C6.5 38.5 7 40.5 8 42L5.5 47.5L12.5 54.5L18.5 51.5C20 52.5 21.5 53 23.5 53.5L25 60H35L37 54C38.5 53.5 40.5 53 42 52L48 55L55 48L52 42C53 40.5 53.5 39 54 37L60 35ZM15 30C15 21.5 21.5 15 30 15C38.5 15 45 21.5 45 30C45 38.5 38.5 45 30 45C21.5 45 15 38.5 15 30Z" fill="#3D5AFE"/>
<path d="M37.4991 30C37.4985 31.9898 36.7074 33.8978 35.2999 35.3043C33.8925 36.7109 31.9839 37.5007 29.9941 37.5C28.0044 37.4993 26.0963 36.7083 24.6898 35.3008C23.2833 33.8933 22.4935 31.9848 22.4941 29.995C22.4948 28.0052 23.2859 26.0972 24.6933 24.6907C25.3902 23.9942 26.2175 23.4419 27.1279 23.0651C28.0382 22.6884 29.0139 22.4947 29.9991 22.495C30.9844 22.4953 31.9599 22.6897 32.87 23.067C33.7802 23.4444 34.607 23.9973 35.3035 24.6942C35.9999 25.3911 36.5523 26.2184 36.929 27.1287C37.3057 28.0391 37.4995 29.0148 37.4991 30Z" fill="#3D5AFE"/>
<path d="M80 15V10H77C77 9 76.5 8 76 7.5L78 5.5L74.5 2L72.5 4C71.5 3.5 71 3 70 3V0H65V3C64 3 63 3.5 62.5 4L60.5 2L57 5.5L59 7.5C58.5 8.5 58 9 58 10H55V15H58C58 16 58.5 17 59 17.5L57 19.5L60.5 23L62.5 21C63.5 21.5 64 22 65 22V25H70V22C71 22 72 21.5 72.5 21L74.5 23L78 19.5L76 17.5C76.5 16.5 77 16 77 15H80V15ZM67.5 17.5C64.5 17.5 62.5 15.5 62.5 12.5C62.5 9.5 64.5 7.5 67.5 7.5C70.5 7.5 72.5 9.5 72.5 12.5C72.5 15.5 70.5 17.5 67.5 17.5Z" fill="#3D5AFE"/>
<path d="M77 59C76.5 57.5 76 56 75 54.5L76.5 51.5L73 48L70.5 50C69 49 67.5 48.5 66 48L65 45H60L59 48C57.5 48.5 56 49 54.5 50L51.5 48.5L48 52L49.5 55C48.5 56.5 48 58 47.5 59.5L45 60V65L48 66C48.5 67.5 49 69 50 70.5L48.5 73.5L52 77L55 75.5C56.5 76.5 58 77 59.5 77.5L60 80H65L66 77C67.5 76.5 69 76 70.5 75L73.5 76.5L77 73L75 70.5C76 69 76.5 67.5 77 66L80 65V60L77 59V59ZM62.5 70C58.5 70 55 66.5 55 62.5C55 58.5 58.5 55 62.5 55C66.5 55 70 58.5 70 62.5C70 66.5 66.5 70 62.5 70Z" fill="#3D5AFE"/>
</svg>
