<svg width="140" height="140" viewBox="0 0 140 140" fill="none" xmlns="http://www.w3.org/2000/svg">
<g clip-path="url(#clip0)">
<path d="M84.0912 49.5427C84.8156 49.5427 85.4343 48.9065 85.4343 48.182C85.4343 47.4398 84.8156 46.8213 84.0912 46.8213C83.3137 46.8213 82.7305 47.4398 82.7305 48.182C82.7305 48.9065 83.3137 49.5427 84.0912 49.5427Z" fill="#161A41"/>
<path d="M84.0735 45.602C84.4976 45.602 85.0986 45.3722 85.0986 44.8244C85.0986 42.7215 85.3461 39.6995 85.3461 37.5966C85.3461 36.9074 84.7629 36.5186 84.0737 36.5186C83.3492 36.5186 82.7837 36.9074 82.7837 37.5966C82.7837 39.6995 83.0311 42.7215 83.0311 44.8244C83.0309 45.3722 83.5081 45.602 84.0735 45.602V45.602Z" fill="#161A41"/>
<path d="M54.0547 32.7061C51.6689 32.7061 50.5732 34.1198 50.5732 35.0741C50.5732 35.7633 51.1564 36.0814 51.6336 36.0814C52.5879 36.0814 52.199 34.7207 54.0017 34.7207C54.8853 34.7207 55.5921 35.1094 55.5921 35.9223C55.5921 36.8766 54.6025 37.4245 54.0195 37.9193C53.507 38.3611 52.8354 39.0857 52.8354 40.6055C52.8354 41.5244 53.0829 41.7895 53.8075 41.7895C54.6734 41.7895 54.8502 41.4008 54.8502 41.065C54.8502 40.1461 54.8679 39.616 55.8399 38.8561C56.3171 38.485 57.8192 37.2834 57.8192 35.6222C57.8192 33.9609 56.3168 32.7061 54.0547 32.7061V32.7061Z" fill="#161A41"/>
<path d="M53.825 43.0093C53.0828 43.0093 52.4819 43.6277 52.4819 44.37C52.4819 45.0944 53.0651 45.7307 53.825 45.7307C54.5849 45.7307 55.1857 45.0944 55.1857 44.37C55.1857 43.6277 54.5673 43.0093 53.825 43.0093Z" fill="#161A41"/>
<path d="M62.1681 84.0756C61.7693 83.579 61.7628 83.136 61.7853 82.3956C61.8746 79.4563 61.2577 76.699 59.9815 74.2134C62.2084 72.5836 63.6585 69.9522 63.6585 66.9872C63.6585 65.3513 62.3276 64.0205 60.6918 64.0205H38.2737C32.3968 64.0205 27.6157 68.8016 27.6157 74.6786L27.6162 86.3313C27.6162 92.5008 30.6249 96.6934 34.8868 98.333V105.417C33.0853 105.833 31.7378 107.449 31.7378 109.375V110.535C31.7378 111.894 32.8437 113 34.2031 113H55.5908C56.9501 113 58.056 111.894 58.056 110.535V109.375C58.056 107.151 56.2591 105.339 54.0409 105.313V102.415C56.9782 102.419 56.0622 102.418 56.2452 102.418C58.5562 102.418 60.4593 100.55 60.4595 98.2042L60.4598 92.9756C60.4598 92.763 60.6184 92.5789 60.8289 92.5473L63.4095 92.1615C65.512 91.8472 66.4753 89.3655 65.1315 87.7152L62.1681 84.0756ZM30.1358 86.3311L30.1353 74.6785C30.1353 70.1908 33.7861 66.54 38.2737 66.54H60.692C60.9385 66.54 61.1391 66.7406 61.1391 66.9872C61.1391 70.5335 58.2539 73.4189 54.7074 73.4189H48.8196C46.4328 73.4189 44.4865 75.3609 44.4813 77.7478L44.4734 81.4573C44.4712 82.4581 43.6554 83.2722 42.6546 83.2722H42.6545L40.1126 83.2719C37.9204 83.2719 36.1369 85.0554 36.1369 87.2476C36.1369 88.4742 36.6904 89.6129 37.6556 90.3718C38.9644 91.4009 38.7935 92.6785 38.8087 92.7433C38.8087 93.9341 37.4229 95.2397 36.0014 96.0616C32.7885 94.9466 30.1358 91.7908 30.1358 86.3311V86.3311ZM63.0371 89.6697L60.4565 90.0555C59.0222 90.2698 57.9406 91.5252 57.9405 92.9755L57.9401 98.2038C57.94 99.1334 57.1888 99.8986 56.2452 99.8986C56.2443 99.8986 56.2433 99.8986 56.2425 99.8986L53.8479 99.8951C53.8466 99.8951 53.8454 99.8951 53.8442 99.8951C52.5619 99.8951 51.5215 100.933 51.5215 102.218V105.312H43.7926C43.0969 105.312 42.5329 105.876 42.5329 106.571C42.5329 107.267 43.0969 107.831 43.7926 107.831H53.9929C54.8441 107.831 55.5367 108.524 55.5367 109.375V110.48H34.2574V109.375C34.2574 108.524 34.9499 107.831 35.8012 107.831H38.7905C39.4862 107.831 40.0503 107.267 40.0503 106.571C40.0503 105.876 39.4862 105.312 38.7905 105.312H37.4063V98.1583C42.3854 95.1945 42.2072 90.7457 39.2128 88.3911C38.8592 88.1129 38.6563 87.6962 38.6563 87.2474C38.6563 86.4445 39.3095 85.7913 40.1123 85.7913L42.654 85.7916H42.6545C45.0415 85.7914 46.9877 83.8497 46.9929 81.4627L47.0008 77.7531C47.003 76.7524 47.8188 75.9382 48.8196 75.9382H54.7074C55.7787 75.9382 56.8065 75.7486 57.7594 75.4019C58.801 77.4464 59.3445 79.76 59.2669 82.319C59.2416 83.1505 59.2034 84.407 60.2087 85.6596L63.1779 89.306C63.2888 89.4421 63.211 89.6436 63.0371 89.6697V89.6697Z" fill="#161A41"/>
<path d="M105.394 66.6117C104.717 66.1625 103.857 66.1115 103.131 66.4712C92.4001 59.7837 78.312 67.5555 78.2727 80.4053C78.2529 80.6785 78.2609 80.9438 78.2687 81.2008C78.2917 81.9549 78.2848 82.4064 77.8827 82.9075L74.8735 86.603C73.5214 88.2633 74.4879 90.7647 76.608 91.0817L79.2234 91.4727C79.4446 91.5058 79.6118 91.6995 79.6118 91.9234L79.6123 97.2223C79.6126 99.5466 81.4907 101.476 83.8664 101.476H83.8731L86.1172 101.473V105.312H86.0975C83.857 105.312 82.0344 107.135 82.0344 109.375V110.535C82.0344 111.894 83.1403 113 84.4996 113H105.887C107.247 113 108.353 111.894 108.353 110.535V109.375C108.353 107.554 107.149 106.01 105.495 105.495V97.8391C106.28 97.614 107.364 97.1751 108.456 96.323C111.703 93.7873 112.384 89.644 112.384 86.6147L112.385 79.6235C112.385 74.3784 109.772 69.5142 105.394 66.6117V66.6117ZM87.9509 99.6363C87.5095 99.1956 86.9233 98.953 86.2998 98.953C86.2984 98.953 86.2972 98.953 86.2961 98.953L83.8693 98.9567C83.8684 98.9567 83.8674 98.9567 83.8664 98.9567C82.9135 98.9567 82.1318 98.1858 82.1318 97.2221L82.1313 91.9232C82.1313 90.4617 81.0413 89.1969 79.596 88.9807L76.9805 88.5897C76.7916 88.5615 76.7061 88.3423 76.8272 88.1938L79.8419 84.4913C80.8512 83.234 80.8126 81.9643 80.787 81.1242C80.7806 80.9125 80.7746 80.7125 80.7874 80.5665C80.7907 80.5299 80.7922 80.4929 80.7922 80.4562C80.7922 69.4863 92.796 62.9343 101.86 68.6479C101.812 72.842 99.1598 76.637 95.2278 78.1162C93.7608 78.6681 92.7773 80.1006 92.7808 81.6808C92.786 84.091 94.7506 86.0512 97.1605 86.0512H97.1613L99.7369 86.0509C100.56 86.0509 101.23 86.7204 101.23 87.5434C101.23 87.9963 101.028 88.4174 100.676 88.7024C98.8847 90.0099 98.6184 92.5652 100.069 94.2155C100.078 94.2259 100.087 94.2361 100.097 94.2462L102.976 97.3133V105.312H88.637V101.29C88.6367 100.665 88.3932 100.078 87.9509 99.6363V99.6363ZM105.833 110.481H84.5539V109.375C84.5539 108.524 85.2464 107.831 86.0975 107.831H104.289C105.14 107.831 105.833 108.524 105.833 109.375V110.481ZM109.865 86.6149C109.865 93.4469 106.126 95.0777 104.684 95.4522L101.95 92.5393C101.517 92.0336 101.513 91.2471 102.217 90.6964C103.191 89.9304 103.749 88.7812 103.749 87.5434C103.749 85.3311 101.949 83.5313 99.7366 83.5313L97.1608 83.5317C97.1606 83.5317 97.1605 83.5317 97.1603 83.5317C96.1369 83.5317 95.3024 82.6989 95.3002 81.6754C95.299 81.1408 95.6264 80.6582 96.1149 80.4745C100.923 78.6658 104.197 74.0777 104.375 68.9679C107.821 71.4263 109.865 75.3763 109.865 79.6239L109.865 86.6149Z" fill="#161A41"/>
<path d="M61.6909 27H47.6563C41.306 27 36.1396 32.1664 36.1396 38.5166C36.1396 44.8668 41.306 50.0332 47.6563 50.0332H48.2064L48.2468 57.0001C48.2599 59.2305 51.0716 60.1874 52.4477 58.4454L59.0938 50.0332H61.6907C68.0409 50.0332 73.2073 44.8668 73.2073 38.5166C73.2073 32.1664 68.0411 27 61.6909 27V27ZM61.6909 47.5139H58.4837C57.3709 47.5139 57.6136 48.1086 50.7637 56.5129L50.7187 48.7662C50.7146 48.0734 50.1518 47.5137 49.4589 47.5137H47.6563C42.6951 47.5137 38.6592 43.4776 38.6592 38.5166C38.6592 33.5557 42.6953 29.5195 47.6563 29.5195H61.6909C66.6518 29.5195 70.688 33.5557 70.688 38.5166C70.688 43.4776 66.6518 47.5139 61.6909 47.5139V47.5139Z" fill="#161A41"/>
<path d="M79.3953 53.8102L85.6807 61.7661C87.0295 63.4737 89.769 62.5228 89.7813 60.3553L89.8194 53.8104H93.546C99.606 53.8104 104.536 48.8802 104.536 42.8202C104.536 36.7602 99.606 31.83 93.546 31.83C77.0609 31.887 77.3145 31.6973 75.6084 32.0074C74.924 32.1319 74.4699 32.7876 74.5944 33.4721C74.7189 34.1567 75.3745 34.6107 76.0593 34.4863C77.4274 34.2377 77.117 34.3941 93.546 34.3496C98.2167 34.3496 102.017 38.1495 102.017 42.8202C102.017 47.4909 98.2167 51.2909 93.546 51.2909H88.5671C87.8742 51.2909 87.3113 51.8504 87.3073 52.5433L87.2656 59.7078L80.994 51.7696C80.7552 51.4672 80.3908 51.2907 80.0055 51.2907H77.5834C75.5365 51.2907 73.5609 50.5508 72.0205 49.2072C71.4961 48.7498 70.7002 48.8043 70.243 49.3287C69.7856 49.8531 69.8401 50.6487 70.3645 51.1061C72.3638 52.85 74.9277 53.8104 77.5836 53.8104H79.3953V53.8102Z" fill="#161A41"/>
</g>
<defs>
<clipPath id="clip0">
<rect width="86" height="86" fill="white" transform="translate(27 27)"/>
</clipPath>
</defs>
</svg>
