<svg width="140" height="140" viewBox="0 0 140 140" fill="none" xmlns="http://www.w3.org/2000/svg">
<path d="M102.875 66.852C99.9483 65.389 94.4616 65.3721 94.2295 65.3721C93.5338 65.3721 92.9697 65.9361 92.9697 66.6318C92.9697 67.3276 93.5338 67.8916 94.2295 67.8916C95.6453 67.8918 99.756 68.1098 101.748 69.1057C101.929 69.1962 102.121 69.2389 102.31 69.2389C102.772 69.2389 103.217 68.9836 103.438 68.5423C103.749 67.92 103.497 67.1633 102.875 66.852Z" fill="#161A41"/>
<path d="M109.156 84.7883L103.953 83.3018C103.728 83.2376 103.571 83.0296 103.571 82.796V81.0594C103.995 80.7661 104.398 80.4379 104.776 80.0715C106.605 78.2965 107.612 75.9155 107.612 73.3671V70.9707L108.115 69.9647C108.667 68.8603 108.959 67.6239 108.959 66.3893V59.8973C108.959 59.2016 108.395 58.6376 107.699 58.6376H95.5766C91.1684 58.6376 87.582 62.224 87.582 66.6322V66.7073C87.582 67.7339 87.8247 68.762 88.2837 69.6802L88.9289 70.9705V73.0281C88.9289 76.2891 90.5359 79.2149 92.9699 80.9756L92.9702 82.7957C92.9702 83.0763 92.9702 83.1926 91.93 83.4899L89.3913 84.2152L82.0476 81.5448C82.0739 81.1983 81.957 80.8459 81.7042 80.5803L79.3575 78.1149V73.9761C79.6056 73.7717 79.8502 73.5618 80.0872 73.3397C83.0476 70.5649 84.7455 66.6472 84.7455 62.5912V59.2859C85.6394 57.3407 86.0924 55.2822 86.0924 53.1623V39.6929C86.0924 38.9971 85.5284 38.4331 84.8326 38.4331H65.975C59.3385 38.4331 53.9395 43.8323 53.9395 50.4686V53.1626C53.9395 55.2826 54.3925 57.341 55.2864 59.2863V62.1301C55.2864 66.8393 57.3803 71.0819 60.6744 73.8789V78.1151L58.3277 80.5805C58.0749 80.8461 57.958 81.1985 57.9844 81.545L50.2334 84.3633C49.6718 84.5676 49.1499 84.8442 48.676 85.1793L47.4589 84.5708C51.082 82.9937 52.2297 80.7757 52.2848 80.6655C52.4622 80.3109 52.4622 79.8933 52.2848 79.5388C51.3766 77.7223 51.2666 74.393 51.1783 71.718C51.1489 70.8274 51.121 69.986 51.0677 69.2369C50.6382 63.1944 46.0446 58.6376 40.3824 58.6376C34.7202 58.6376 30.1264 63.1942 29.6971 69.2369C29.6438 69.9862 29.6159 70.8276 29.5866 71.7183C29.4982 74.3932 29.388 77.7222 28.48 79.5386C28.3026 79.8932 28.3026 80.3107 28.48 80.6653C28.5351 80.7755 29.6804 82.989 33.3108 84.5679L29.93 86.2582C28.1227 87.1625 27 88.9791 27 90.9996V100.307C27 101.002 27.564 101.566 28.2598 101.566C28.9555 101.566 29.5195 101.002 29.5195 100.307V90.9996C29.5195 89.9394 30.1086 88.9862 31.0568 88.512L35.2666 86.4072L36.7309 87.7988C37.7549 88.7718 39.0684 89.2581 40.3824 89.2581C41.6961 89.2581 43.0103 88.7715 44.0339 87.7988L45.4981 86.4073L46.8707 87.0936C46.2244 88.1278 45.8575 89.3406 45.8575 90.6109V100.307C45.8575 101.003 46.4216 101.567 47.1173 101.567C47.813 101.567 48.377 101.003 48.377 100.307V90.6109C48.377 88.8815 49.469 87.3224 51.0944 86.7313L59.2665 83.7598L62.6683 88.8629C63.1032 89.5153 63.8001 89.9337 64.5803 90.0109C64.6673 90.0195 64.7538 90.0237 64.8402 90.0237C65.5285 90.0237 66.1878 89.7528 66.6806 89.2601L68.756 87.1847V100.307C68.756 101.003 69.3201 101.567 70.0158 101.567C70.7115 101.567 71.2756 101.003 71.2756 100.307V87.1847L73.351 89.2601C73.8436 89.7529 74.5029 90.0239 75.1914 90.0239C75.2776 90.0239 75.3643 90.0197 75.4511 90.0111C76.2315 89.9338 76.9284 89.5154 77.3632 88.863L80.7653 83.7601L88.9371 86.7317C90.5624 87.3228 91.6545 88.8818 91.6545 90.6113V100.307C91.6545 101.003 92.2186 101.567 92.9143 101.567C93.61 101.567 94.1741 101.003 94.1741 100.307V90.6113C94.1741 88.8597 93.4782 87.2169 92.3108 86.002L92.622 85.9132C92.936 85.8235 93.3643 85.7007 93.7943 85.4899L97.0107 88.7063V100.307C97.0107 101.003 97.5748 101.567 98.2705 101.567C98.9662 101.567 99.5303 101.003 99.5303 100.307V88.7063L102.724 85.5122C102.894 85.5986 103.073 85.6715 103.26 85.725L108.463 87.2116C109.651 87.5509 110.48 88.6506 110.48 89.8858V100.307C110.48 101.003 111.045 101.567 111.74 101.567C112.436 101.567 113 101.003 113 100.307V89.8858C113 87.5312 111.419 85.4351 109.156 84.7883ZM35.0818 82.5632C32.7254 81.7153 31.5434 80.5849 31.0388 79.9676C31.3828 79.0683 31.6059 78.0383 31.7569 76.951C32.4516 78.6168 33.6151 80.0388 35.0818 81.0533V82.5632ZM42.2986 85.9726C41.2241 86.9935 39.5409 86.9934 38.4667 85.9725L37.2951 84.8592C37.4928 84.4888 37.6015 84.0689 37.6015 83.629V82.2862C38.4803 82.5608 39.4146 82.709 40.3827 82.709C41.3497 82.709 42.2835 82.5602 43.1638 82.2871L43.1636 83.6288C43.1636 84.0689 43.2721 84.489 43.47 84.8595L42.2986 85.9726ZM40.3831 80.1895C36.6213 80.1895 33.561 77.1291 33.561 73.3674C33.561 72.6717 32.997 72.1076 32.3013 72.1076C32.2307 72.1076 32.1618 72.1149 32.0945 72.1261C32.0982 72.0178 32.1017 71.9093 32.1054 71.8019C32.1335 70.9357 32.1605 70.1176 32.2104 69.4158C32.3713 67.1522 33.2758 65.0664 34.7573 63.5422C36.2521 62.0043 38.2499 61.1574 40.3827 61.1574C42.5156 61.1574 44.5133 62.0043 46.0082 63.5422C47.4897 65.0664 48.3942 67.1522 48.5551 69.4158C48.6048 70.1174 48.632 70.9354 48.6606 71.8014C48.6631 71.8758 48.6656 71.9513 48.6681 72.0262C47.2975 69.9145 45.1808 68.3583 42.4457 67.4794C39.919 66.6676 37.7458 66.7179 37.6541 66.7202C37.3242 66.7295 37.0111 66.8675 36.7822 67.105L34.5092 69.4623C34.0263 69.9632 34.0407 70.7607 34.5416 71.2436C35.0425 71.7265 35.84 71.7119 36.3229 71.2112L38.2143 69.2498C39.8431 69.3294 45.0832 69.9388 47.1211 74.4265C46.6083 77.7334 43.766 80.1895 40.3831 80.1895ZM45.683 82.5674L45.6832 81.0649C47.1487 80.0559 48.3139 78.6366 49.0091 76.9582C49.1601 78.043 49.383 79.0706 49.7263 79.9679C49.2246 80.5793 48.0371 81.7198 45.683 82.5674ZM57.806 62.13V59.0044C57.806 58.8148 57.7631 58.6275 57.6807 58.4567C56.8701 56.778 56.459 54.9968 56.459 53.1626V50.4687C56.459 45.2216 60.728 40.9528 65.975 40.9528H83.5729V53.1628C83.5729 54.997 83.1619 56.7781 82.3512 58.4568C82.2688 58.6277 82.2259 58.8149 82.2259 59.0046V62.5915C82.2259 66.0032 80.8545 69.1675 78.3642 71.5018C78.0533 71.793 77.7306 72.0662 77.397 72.3206C77.3896 72.3257 77.3826 72.3312 77.3753 72.3364C75.0424 74.1077 72.1849 74.9685 69.2008 74.7752C62.8111 74.3615 57.806 68.8071 57.806 62.13ZM64.8991 87.4783C64.8904 87.487 64.8701 87.5077 64.8289 87.5033C64.7879 87.4993 64.7718 87.4753 64.7649 87.4649L60.847 81.588L62.1078 80.2632L68.0514 84.3259L64.8991 87.4783ZM70.016 82.6168L63.1939 77.9536V75.6021C64.9591 76.5563 66.9356 77.1531 69.0377 77.2891C69.3698 77.3106 69.6998 77.3212 70.0289 77.3212C72.4377 77.3212 74.756 76.7454 76.838 75.6525V77.9536L70.016 82.6168ZM75.267 87.4652C75.2601 87.4756 75.244 87.4996 75.203 87.5037C75.1618 87.5089 75.1417 87.4872 75.1328 87.4786L71.9805 84.3264L77.9241 80.2635L79.185 81.5883L75.267 87.4652ZM98.2705 86.4023L95.4117 83.5436C95.4615 83.317 95.4898 83.069 95.4896 82.7953L95.4894 82.2637C96.2827 82.5241 97.1189 82.6786 97.9841 82.7045C98.0812 82.7075 98.1774 82.7088 98.2742 82.7088C99.2303 82.7088 100.163 82.5644 101.052 82.2887V82.796C101.052 83.0473 101.083 83.2935 101.143 83.5302L98.2705 86.4023ZM103.021 78.2635C101.686 79.5592 99.9221 80.2435 98.0598 80.1861C94.4143 80.0768 91.4484 76.8657 91.4484 73.0285V70.6734C91.4484 70.4777 91.4029 70.2848 91.3154 70.11L90.5372 68.5536C90.2522 67.9833 90.1015 67.3451 90.1015 66.7075V66.6324C90.1015 63.6133 92.5577 61.1573 95.5766 61.1573H106.44V66.3895C106.44 67.235 106.24 68.0818 105.862 68.8381L105.226 70.11C105.138 70.285 105.093 70.4777 105.093 70.6734V73.3672C105.093 75.2283 104.357 76.9672 103.021 78.2635Z" fill="#161A41"/>
<path d="M106.353 90.9648C105.657 90.9648 105.093 91.5289 105.093 92.2246V100.306C105.093 101.002 105.657 101.566 106.353 101.566C107.048 101.566 107.612 101.002 107.612 100.306V92.2246C107.612 91.5291 107.048 90.9648 106.353 90.9648Z" fill="#161A41"/>
<path d="M33.6475 92.6299C32.9517 92.6299 32.3877 93.1939 32.3877 93.8896V100.306C32.3877 101.002 32.9517 101.566 33.6475 101.566C34.3432 101.566 34.9072 101.002 34.9072 100.306V93.8896C34.9072 93.1941 34.3432 92.6299 33.6475 92.6299Z" fill="#161A41"/>
<path d="M80.3354 53.619C75.5707 48.8544 65.602 49.7653 61.5368 50.378C60.2564 50.571 59.3271 51.6546 59.3271 52.9545V55.8567C59.3271 56.5524 59.8912 57.1164 60.5869 57.1164C61.2826 57.1164 61.8467 56.5524 61.8467 55.8567V52.9543C61.8467 52.9115 61.8749 52.8749 61.9125 52.8692C63.5363 52.6245 66.7584 52.2469 70.0968 52.4694C74.0253 52.7309 76.8707 53.7171 78.5539 55.4005C79.0459 55.8925 79.8435 55.8925 80.3354 55.4005C80.8273 54.9085 80.8273 54.1108 80.3354 53.619Z" fill="#161A41"/>
<path d="M55.1992 93.6587C54.5035 93.6587 53.9395 94.2227 53.9395 94.9185V100.306C53.9395 101.002 54.5035 101.566 55.1992 101.566C55.8949 101.566 56.459 101.002 56.459 100.306V94.9185C56.459 94.2229 55.8949 93.6587 55.1992 93.6587Z" fill="#161A41"/>
<path d="M84.833 93.6587C84.1373 93.6587 83.5732 94.2227 83.5732 94.9185V100.306C83.5732 101.002 84.1373 101.566 84.833 101.566C85.5287 101.566 86.0928 101.002 86.0928 100.306V94.9185C86.0928 94.2229 85.5287 93.6587 84.833 93.6587Z" fill="#161A41"/>
</svg>
