<svg width="140" height="140" viewBox="0 0 140 140" fill="none" xmlns="http://www.w3.org/2000/svg">
<g clip-path="url(#clip0)">
<path d="M79.9185 87.752H75.2041C74.5084 87.752 73.9443 88.316 73.9443 89.0117C73.9443 89.7076 74.5084 90.2715 75.2041 90.2715H79.9185C80.6142 90.2715 81.1783 89.7076 81.1783 89.0117C81.1783 88.316 80.6142 87.752 79.9185 87.752Z" fill="#161A41"/>
<path d="M107.666 74.2657L100.806 71.6197L97.3087 68.1221C97.0842 67.8975 96.7947 67.7759 96.4991 67.7569V64.9738C98.1476 63.2162 99.321 60.9904 99.7945 58.483C100.088 58.4963 100.385 58.4726 100.678 58.4128C102.354 58.0696 103.571 56.5144 103.571 54.7151V53.7965C103.571 52.7556 103.149 51.8002 102.461 51.117C103.574 45.0668 102.658 40.1362 99.7997 36.8361C97.0354 33.6442 92.5819 32.1185 86.9212 32.4247C81.6913 32.7074 78.3151 35.1137 77.2454 35.9941C76.6599 36.0636 75.6625 36.2692 74.653 36.8749C73.2538 37.7144 71.5861 39.4779 71.5861 43.1116C71.5861 46.2815 72.0926 48.928 72.4595 50.4295C71.23 51.0285 70.4074 52.3266 70.4074 53.8106V54.7149C70.4074 56.5142 71.624 58.0695 73.3002 58.4126C73.593 58.4726 73.8899 58.4961 74.1837 58.4828C74.6572 60.9903 75.8308 63.216 77.4791 64.9737V67.7568C77.1835 67.7757 76.8939 67.8973 76.6695 68.1219L73.1719 71.6195L66.3118 74.2656C65.7184 74.4943 65.1515 74.7911 64.6271 75.1474C64.0516 75.5384 63.9021 76.3218 64.293 76.8973C64.5367 77.2561 64.933 77.4493 65.3361 77.4493C65.5798 77.4493 65.826 77.3785 66.0429 77.2314C66.4086 76.983 66.8041 76.776 67.2185 76.6161L73.5851 74.1604L78.4528 81.4622C79.0562 82.3674 80.0233 82.9481 81.1059 83.0552C81.2263 83.0672 81.3468 83.073 81.4664 83.073C82.093 83.073 82.7011 82.9083 83.2393 82.6037L82.1947 106.299C82.1639 106.994 82.7026 107.582 83.3978 107.613C83.4166 107.614 83.4355 107.614 83.4543 107.614C84.1245 107.614 84.6821 107.086 84.7119 106.41L85.6814 84.4156H88.2967L89.2662 106.41C89.2959 107.086 89.8536 107.614 90.5238 107.614C90.5426 107.614 90.5614 107.614 90.5802 107.613C91.2753 107.582 91.8139 106.994 91.7834 106.299L90.7388 82.6037C91.2769 82.9083 91.8848 83.073 92.5117 83.073C92.6313 83.073 92.7517 83.0672 92.8721 83.0552C93.9547 82.9481 94.9217 82.3674 95.5252 81.4622L100.393 74.1604L106.76 76.6161C107.652 76.9605 108.421 77.5099 109.025 78.1954L104.67 82.551C103.096 84.1247 102.23 86.2169 102.23 88.4422V106.354C102.23 107.05 102.794 107.614 103.489 107.614C104.185 107.614 104.749 107.05 104.749 106.354V88.4422C104.749 86.89 105.354 85.4303 106.451 84.3326L110.274 80.51C110.427 81.0732 110.499 81.6653 110.475 82.2707L109.499 106.303C109.471 106.999 110.012 107.585 110.707 107.613C110.724 107.614 110.742 107.614 110.759 107.614C111.431 107.614 111.989 107.083 112.017 106.406L112.993 82.3724C113.136 78.8075 110.995 75.5497 107.666 74.2657ZM76.6498 57.9635C76.4276 56.7539 75.3076 55.8748 74.0987 55.9643C74.0031 55.9712 73.9047 55.9645 73.8056 55.9443C73.3047 55.8418 72.927 55.3132 72.927 54.7151V53.8104C72.927 53.2261 73.3175 52.6996 73.8158 52.6121C74.2364 52.5382 74.6392 52.6926 74.894 53.025C75.1253 53.3265 75.4339 53.5422 75.7861 53.6483C76.3021 53.8042 76.871 53.7127 77.3084 53.4039C78.0962 52.8478 78.7913 52.1683 79.3743 51.3843C79.7895 50.8259 79.6733 50.0368 79.1151 49.6218C78.5566 49.2065 77.7677 49.3226 77.3524 49.8809C77.0617 50.272 76.7331 50.6269 76.3715 50.941C75.9721 50.5993 75.5055 50.3524 75.0054 50.2115C74.6817 48.9716 74.1056 46.3151 74.1056 43.1113C74.1056 41.1818 74.7004 39.8261 75.8733 39.082C76.7886 38.5013 77.7573 38.4782 77.7566 38.478C78.0786 38.478 78.392 38.3512 78.6258 38.13C78.6566 38.1011 81.7534 35.2271 87.0569 34.9404C91.9115 34.6784 95.6593 35.9039 97.8948 38.4852C100.148 41.0871 100.898 45.0816 100.084 50.0812C99.7468 50.0692 99.3774 50.0948 99.0098 50.1561L97.8262 47.3137C97.5847 46.7339 96.9521 46.4208 96.3444 46.5792C96.2273 46.6097 84.5936 49.5589 79.7156 43.4858C79.2801 42.9435 78.4872 42.8568 77.9445 43.2925C77.4022 43.7282 77.3155 44.521 77.7514 45.0636C82.7327 51.2653 92.6167 49.9162 95.9069 49.2583L96.8221 51.4562C97.2157 52.401 98.2225 52.917 99.2148 52.683C99.6222 52.5871 100.011 52.5849 100.157 52.6138C100.667 52.7153 101.051 53.2234 101.051 53.7961V54.7149C101.051 55.3132 100.673 55.8417 100.172 55.9441C100.074 55.9645 99.9746 55.9712 99.8793 55.9641C98.6706 55.8761 97.5506 56.7536 97.3282 57.9635C96.4118 62.9528 92.0635 66.5742 86.989 66.5742C81.9145 66.5742 77.5663 62.9528 76.6498 57.9635ZM82.2383 80.2322C81.9189 80.5517 81.5475 80.5673 81.3543 80.5481C81.1613 80.5291 80.8 80.4408 80.5494 80.0649L75.6455 72.7092L77.6177 70.737L85.1461 77.3245L82.2383 80.2322ZM85.7924 81.8962L85.8687 80.1648L86.9889 79.0446L88.109 80.1648L88.1853 81.8962H85.7924ZM86.989 75.589L79.9986 69.4724V67.0614C82.0311 68.3539 84.4357 69.0938 86.989 69.0938C89.5423 69.0938 91.9471 68.3539 93.9796 67.0614V69.4724L86.989 75.589ZM93.429 80.0649C93.1782 80.441 92.8169 80.5291 92.6241 80.5481C92.4307 80.5673 92.0593 80.5517 91.7399 80.232L88.8321 77.3243L96.3605 70.7369L98.3327 72.709L93.429 80.0649Z" fill="#161A41"/>
<path d="M66.9506 80.8678L60.7993 78.1828L57.4367 74.8202C57.2114 74.5948 56.9218 74.4738 56.6271 74.455V72.4731C59.5008 70.5847 61.6038 67.5812 62.2796 64.0023C62.6105 64.0171 62.9446 63.9853 63.2738 63.9076C64.8858 63.5261 66.0557 61.9813 66.0557 60.2344V59.3159C66.0557 58.0397 65.4224 56.8916 64.4413 56.2181C64.7299 55.0749 64.877 53.9053 64.877 52.728C64.877 47.5089 62.0558 42.9119 57.8033 40.2724C57.758 35.9165 54.04 32.3857 49.4741 32.3857C44.9082 32.3857 41.1902 35.9165 41.1448 40.2724C36.8925 42.9119 34.0713 47.509 34.0713 52.728C34.0713 53.9018 34.2174 55.068 34.5043 56.208C33.5237 56.8782 32.8926 58.0316 32.8926 59.3297V60.2344C32.8926 61.9813 34.0626 63.5261 35.6746 63.9076C36.0038 63.9855 36.3377 64.0171 36.6688 64.0023C37.3445 67.5812 39.4477 70.5847 42.3214 72.4731V74.455C42.0267 74.4738 41.7371 74.5948 41.5118 74.8202L38.1492 78.1828L31.998 80.8678C28.8683 82.234 26.8627 85.4443 27.0073 88.8562L27.7513 106.408C27.78 107.085 28.3378 107.614 29.009 107.614C29.027 107.614 29.0451 107.614 29.0633 107.613C29.7585 107.584 30.298 106.996 30.2686 106.301L29.5245 88.7494C29.4767 87.6185 29.7706 86.5211 30.3232 85.5766L33.6297 89.5444C34.6746 90.7983 35.2499 92.3876 35.2499 94.0196V106.355C35.2499 107.05 35.814 107.614 36.5097 107.614C37.2054 107.614 37.7695 107.05 37.7695 106.355V94.0196C37.7695 91.7994 36.9866 89.6373 35.5652 87.9315L32.0501 83.7133C32.3489 83.5074 32.6666 83.325 33.006 83.1768L38.3669 80.8367L42.1553 86.9859C42.5294 87.5931 43.1479 88.0048 43.8523 88.1156C43.979 88.1356 44.1059 88.1454 44.2324 88.1454C44.8084 88.1454 45.3694 87.9413 45.8142 87.5617L48.2148 85.5133V106.354C48.2148 107.05 48.7789 107.614 49.4746 107.614C50.1703 107.614 50.7344 107.05 50.7344 106.354V85.5136L53.1348 87.562C53.5796 87.9416 54.1406 88.1457 54.7166 88.1457C54.8429 88.1457 54.97 88.1358 55.0967 88.116C55.8012 88.0051 56.4196 87.5934 56.7937 86.9862L60.5821 80.8369L65.943 83.177C66.2823 83.3252 66.6001 83.5076 66.8989 83.7135L63.3838 87.9317C61.9624 89.6373 61.1795 91.7995 61.1795 94.0198V106.355C61.1795 107.05 61.7436 107.615 62.4393 107.615C63.135 107.615 63.6991 107.05 63.6991 106.355V94.0198C63.6991 92.3878 64.2745 90.7984 65.3193 89.5446L68.6258 85.5768C69.1784 86.5213 69.4724 87.6186 69.4245 88.7496L68.6805 106.301C68.6511 106.996 69.1907 107.584 69.8859 107.613C69.904 107.614 69.922 107.615 69.9401 107.615C70.6114 107.615 71.1692 107.085 71.1979 106.408L71.9418 88.8564C72.0863 85.4444 70.0806 82.234 66.9506 80.8678ZM49.4744 34.9053C52.1545 34.9053 54.4157 36.615 55.0844 38.9317C53.3453 38.2753 51.4529 37.9143 49.4744 37.9143C47.4959 37.9143 45.6036 38.2753 43.8644 38.9317C44.5331 36.615 46.7941 34.9053 49.4744 34.9053ZM39.1351 63.4831C38.913 62.2732 37.7911 61.3944 36.5841 61.4838C36.4771 61.4913 36.3666 61.4822 36.2551 61.4557C35.7747 61.342 35.4124 60.8169 35.4124 60.2344V59.3297C35.4124 58.7453 35.8029 58.2189 36.3013 58.1314C36.7218 58.0575 37.1245 58.212 37.3791 58.5441C37.6104 58.8458 37.919 59.0615 38.2715 59.168C38.7874 59.3238 39.3566 59.2323 39.7937 58.9234C40.5695 58.3758 41.2555 57.7083 41.8327 56.9397C42.2504 56.3834 42.138 55.5936 41.5817 55.176C41.0252 54.7583 40.2356 54.8706 39.8179 55.4269C39.5321 55.8074 39.2105 56.1532 38.8567 56.4605C38.3177 55.9996 37.6568 55.711 36.9557 55.6235C36.7143 54.6746 36.5908 53.7043 36.5908 52.7282C36.5908 45.9493 42.3703 40.434 49.4744 40.434C56.5783 40.434 62.3578 45.9491 62.3578 52.7282C62.3578 53.7024 62.2351 54.6707 61.9945 55.6179C61.663 55.6443 61.326 55.6986 61.0141 55.7795L60.0671 55.0008C59.5912 54.6094 58.9922 54.4136 58.386 54.4497C56.5343 54.559 47.0511 54.8095 42.1857 48.9867C41.7396 48.4529 40.9453 48.3816 40.4113 48.8278C39.8773 49.2739 39.8063 50.0684 40.2524 50.6022C42.652 53.474 46.1715 55.4159 50.7129 56.374C54.19 57.1075 57.281 57.0363 58.492 56.9672L59.9695 58.1821C60.3761 58.5166 60.9464 58.5638 61.4018 58.2987C61.6154 58.1823 62.331 58.0711 62.6432 58.1334C63.1527 58.2347 63.5366 58.743 63.5366 59.3159V60.2344C63.5366 60.8171 63.1743 61.3422 62.6939 61.4557C62.5826 61.4821 62.4719 61.4916 62.3649 61.4836C61.1585 61.3959 60.036 62.2732 59.8138 63.4829C58.8973 68.4725 54.5491 72.0939 49.4746 72.0939C44.3999 72.0939 40.0515 68.4725 39.1351 63.4831ZM44.2507 85.5838L40.4617 79.4335L42.4027 77.4924L47.6195 82.7092L44.2507 85.5838ZM49.4744 81.0008L44.8412 76.3675V73.7613C46.2875 74.3119 47.8505 74.6134 49.4744 74.6134C51.0983 74.6134 52.6613 74.3119 54.1077 73.7615V76.3675L49.4744 81.0008ZM54.6981 85.5838L51.3293 82.7092L56.5461 77.4924L58.4872 79.4335L54.6981 85.5838Z" fill="#161A41"/>
<path d="M44.7604 93.3086H41.2246C40.5289 93.3086 39.9648 93.8726 39.9648 94.5684C39.9648 95.2641 40.5289 95.8281 41.2246 95.8281H44.7604C45.4561 95.8281 46.0201 95.2641 46.0201 94.5684C46.0201 93.8726 45.4561 93.3086 44.7604 93.3086Z" fill="#161A41"/>
</g>
<defs>
<clipPath id="clip0">
<rect width="86" height="86" fill="white" transform="translate(27 27)"/>
</clipPath>
</defs>
</svg>
