<svg width="80" height="80" viewBox="0 0 80 80" fill="none" xmlns="http://www.w3.org/2000/svg">
<path d="M72.1577 8.40778C72.1312 8.27955 72.0685 8.16158 71.9772 8.06774C71.8858 7.97391 71.7696 7.90811 71.6421 7.8781C63.1452 5.79997 43.5171 13.2047 32.8718 23.8422C30.9746 25.7238 29.2446 27.7669 27.7015 29.9484C24.4202 29.6515 21.139 29.9015 18.3452 31.1203C10.4562 34.589 8.16087 43.6484 7.52024 47.5375C7.48553 47.7506 7.50036 47.9688 7.56357 48.1752C7.62678 48.3817 7.73668 48.5708 7.88475 48.7279C8.03282 48.8851 8.21508 49.006 8.41741 49.0814C8.61975 49.1567 8.83671 49.1845 9.05149 49.1625L21.7187 47.7718C21.7274 48.7273 21.7848 49.6816 21.8906 50.6312C21.9567 51.2876 22.2495 51.9003 22.7187 52.364L27.6234 57.2687C28.0875 57.7382 28.7009 58.0311 29.3577 58.0968C30.3016 58.2021 31.2502 58.2595 32.1999 58.2687L30.8109 70.925C30.7892 71.1395 30.8171 71.3561 30.8925 71.5581C30.9679 71.7601 31.0887 71.942 31.2456 72.0899C31.4025 72.2377 31.5913 72.3475 31.7975 72.4108C32.0036 72.474 32.2215 72.489 32.4343 72.4547C36.3249 71.8297 45.4031 69.5343 48.8515 61.6468C50.0702 58.85 50.3202 55.5859 50.039 52.3203C52.2269 50.7786 54.2759 49.0486 56.1624 47.15C66.8468 36.525 74.2046 17.3281 72.1577 8.40778ZM46.6656 33.3859C45.7323 32.4529 45.0967 31.2641 44.8392 29.9698C44.5816 28.6756 44.7137 27.334 45.2186 26.1148C45.7235 24.8956 46.5787 23.8535 47.6759 23.1203C48.7731 22.3871 50.0631 21.9958 51.3827 21.9958C52.7024 21.9958 53.9924 22.3871 55.0896 23.1203C56.1868 23.8535 57.042 24.8956 57.5469 26.1148C58.0518 27.334 58.1839 28.6756 57.9263 29.9698C57.6687 31.2641 57.0332 32.4529 56.0999 33.3859C55.4809 34.0062 54.7457 34.4984 53.9362 34.8341C53.1268 35.1699 52.2591 35.3428 51.3827 35.3428C50.5064 35.3428 49.6387 35.1699 48.8293 34.8341C48.0198 34.4984 47.2846 34.0062 46.6656 33.3859V33.3859Z" stroke="#3D5AFE" stroke-width="3" stroke-linecap="round" stroke-linejoin="round"/>
<path d="M17.1312 55C15.5736 55.1912 14.1245 55.8973 13.0141 57.0062C10.2609 59.7687 10 70 10 70C10 70 20.2375 69.7391 22.9922 66.9828C24.1056 65.8741 24.8129 64.4226 25 62.8625" stroke="#3D5AFE" stroke-width="3" stroke-linecap="round" stroke-linejoin="round"/>
</svg>
